<svg width="135" height="175" xmlns="http://www.w3.org/2000/svg" xmlns:xlink="http://www.w3.org/1999/xlink" xml:space="preserve" overflow="hidden"><g transform="translate(-793 -666)"><path d="M897.095 822.146C889.415 839.739 860.315 845.652 832.095 835.354 803.878 825.056 787.225 802.447 794.905 784.854 802.585 767.261 831.685 761.348 859.905 771.647 888.122 781.944 904.775 804.554 897.095 822.146Z" fill="#E6E6E6" fill-rule="evenodd" fill-opacity="0.568627"/><path d="M845.245 782.481 837.358 807.165 850.812 812.482 864.358 786.558Z" stroke="#000000" stroke-width="5.15607" stroke-linecap="round" stroke-linejoin="round" stroke-miterlimit="10" fill="#FFFFFF" fill-rule="evenodd"/><path d="M915.58 769.205C906.481 792.403 877.741 802.827 851.383 792.486 825.026 782.146 811.036 754.957 820.135 731.758 829.235 708.56 857.974 698.136 884.332 708.477 910.69 718.818 924.68 746.006 915.58 769.205Z" stroke="#000000" stroke-width="5.15607" stroke-linecap="round" stroke-linejoin="round" stroke-miterlimit="10" fill="#FFFFFF" fill-rule="evenodd"/><path d="M919.122 726.174C917.896 728.218 916.599 732.032 915.264 733.931 906.457 746.47 888.642 751.026 872.069 744.547 856.476 738.451 842.982 720.722 847.109 706.892 847.983 703.965 848.4 702.75 849.567 699.649 855.933 682.694 877.009 676.057 896.094 683.517 915.175 690.977 928.895 709.889 919.122 726.172Z" stroke="#000000" stroke-width="5.15607" stroke-linecap="round" stroke-linejoin="round" stroke-miterlimit="10" fill="#FFFFFF" fill-rule="evenodd"/><path d="M923.445 715.413C917.064 731.753 896.631 738.986 877.805 731.569 858.979 724.151 848.893 704.892 855.274 688.551 861.655 672.212 882.088 664.978 900.914 672.396 919.738 679.813 929.826 699.073 923.445 715.413Z" stroke="#000000" stroke-width="5.15607" stroke-linecap="round" stroke-linejoin="round" stroke-miterlimit="10" fill="#FFFFFF" fill-rule="evenodd"/><path d="M877.516 748.509 874.859 792.982C893.706 791.678 905.285 781.697 912.419 767.645 915.599 755.112 915.946 746.883 911.813 739.982 908.205 746.454 888.889 752.247 877.516 748.509Z" fill="#E6E6E6" fill-rule="evenodd"/></g></svg>